<?xml version="1.0" encoding="UTF-8"?>
<svg version="1.1" xmlns="http://www.w3.org/2000/svg" width="30" height="30">
<path d="M0 0 C3.6875 1 3.6875 1 6 2 C6.625 4.3125 6.625 4.3125 7 7 C6.01 8.485 6.01 8.485 5 10 C5.185625 10.928125 5.37125 11.85625 5.5625 12.8125 C6.12074006 16.87967757 5.23424111 18.61011694 3 22 C-0.79937824 24.82347809 -5.23971589 24.22223664 -9.75 24.125 C-10.54277344 24.11597656 -11.33554688 24.10695313 -12.15234375 24.09765625 C-14.10169281 24.07417012 -16.05088575 24.03830137 -18 24 C-17.52291843 16.56410792 -16.5995175 9.02091906 -14 2 C-9.53918818 -0.97387455 -5.23354074 -0.38766968 0 0 Z " fill="#D93538" transform="translate(21,3)"/>
<path d="M0 0 C0.33 0 0.66 0 1 0 C1 1.65 1 3.3 1 5 C0.34 5 -0.32 5 -1 5 C-0.24849977 8.27773504 -0.24849977 8.27773504 3 10 C1.25 16.75 1.25 16.75 -1 19 C-2.87939453 19.22705078 -2.87939453 19.22705078 -5.1328125 19.1953125 C-5.93847656 19.18886719 -6.74414062 19.18242187 -7.57421875 19.17578125 C-8.41597656 19.15902344 -9.25773438 19.14226563 -10.125 19.125 C-11.39923828 19.11146484 -11.39923828 19.11146484 -12.69921875 19.09765625 C-14.79959884 19.07405647 -16.89983444 19.03818483 -19 19 C-19 16.36 -19 13.72 -19 11 C-18.01 10.67 -17.02 10.34 -16 10 C-14 12 -14 12 -14 15 C-9.545 14.505 -9.545 14.505 -5 14 C-5 12.68 -5 11.36 -5 10 C-7.31 9.34 -9.62 8.68 -12 8 C-12 7.67 -12 7.34 -12 7 C-11.38511719 6.99742188 -10.77023437 6.99484375 -10.13671875 6.9921875 C-7.62855042 6.87217945 -5.42008233 6.68225725 -3 6 C-0.83752779 3.09748698 -0.83752779 3.09748698 0 0 Z " fill="#D91B1F" transform="translate(24,7)"/>
<path d="M0 0 C5.25216742 0.02870037 9.70181612 0.14343738 14.609375 2.265625 C15.75885395 5.81855993 15.6962687 7.06539169 14.171875 10.578125 C13.3984375 11.9084375 13.3984375 11.9084375 12.609375 13.265625 C11.949375 12.935625 11.289375 12.605625 10.609375 12.265625 C10.609375 11.275625 10.609375 10.285625 10.609375 9.265625 C11.269375 9.265625 11.929375 9.265625 12.609375 9.265625 C12.279375 8.275625 11.949375 7.285625 11.609375 6.265625 C11.3 7.090625 10.990625 7.915625 10.671875 8.765625 C8.609375 11.265625 8.609375 11.265625 6.40625 11.59765625 C4.12320101 11.57970775 1.88199804 11.4800234 -0.390625 11.265625 C-0.390625 9.285625 -0.390625 7.305625 -0.390625 5.265625 C2.249375 4.935625 4.889375 4.605625 7.609375 4.265625 C7.609375 3.935625 7.609375 3.605625 7.609375 3.265625 C3.649375 2.935625 -0.310625 2.605625 -4.390625 2.265625 C-2.390625 0.265625 -2.390625 0.265625 0 0 Z " fill="#D93A3E" transform="translate(12.390625,2.734375)"/>
<path d="M0 0 C0.66 0.33 1.32 0.66 2 1 C2 2.65 2 4.3 2 6 C5.63 6 9.26 6 13 6 C13 6.99 13 7.98 13 9 C8.05 9 3.1 9 -2 9 C-2 6.36 -2 3.72 -2 1 C-1.34 0.67 -0.68 0.34 0 0 Z " fill="#DD0005" transform="translate(7,17)"/>
<path d="M0 0 C3.3 0 6.6 0 10 0 C9.67 1.65 9.34 3.3 9 5 C6.03 5 3.06 5 0 5 C0 3.35 0 1.7 0 0 Z " fill="#F9EAE9" transform="translate(10,17)"/>
<path d="M0 0 C3.96 0 7.92 0 12 0 C12 0.99 12 1.98 12 3 C10.56274129 3.16873478 9.12518162 3.33490737 7.6875 3.5 C6.88699219 3.5928125 6.08648437 3.685625 5.26171875 3.78125 C3 4 3 4 0 4 C0 2.68 0 1.36 0 0 Z " fill="#DC0004" transform="translate(8,5)"/>
<path d="M0 0 C2.97 0 5.94 0 9 0 C8.67 1.32 8.34 2.64 8 4 C5.36 4 2.72 4 0 4 C0 2.68 0 1.36 0 0 Z " fill="#F7E6E6" transform="translate(12,9)"/>
<path d="M0 0 C0.33 0 0.66 0 1 0 C1 1.65 1 3.3 1 5 C0.34 5 -0.32 5 -1 5 C-1.66 6.32 -2.32 7.64 -3 9 C-5.64 9 -8.28 9 -11 9 C-11.33 8.34 -11.66 7.68 -12 7 C-11.38511719 6.99742188 -10.77023437 6.99484375 -10.13671875 6.9921875 C-7.62855042 6.87217945 -5.42008233 6.68225725 -3 6 C-0.83752779 3.09748698 -0.83752779 3.09748698 0 0 Z " fill="#E00004" transform="translate(24,7)"/>
<path d="M0 0 C0.33 0 0.66 0 1 0 C1.33 2.31 1.66 4.62 2 7 C1.34 7 0.68 7 0 7 C0 4.69 0 2.38 0 0 Z " fill="#D97C7C" transform="translate(27,20)"/>
<path d="M0 0 C0.625 1.8125 0.625 1.8125 1 4 C0.34 4.99 -0.32 5.98 -1 7 C-0.67 4.69 -0.34 2.38 0 0 Z " fill="#DC7374" transform="translate(29,13)"/>
</svg>
